<svg xmlns="http://www.w3.org/2000/svg" width="20" height="17" viewBox="0 0 20 17"><g fill="none" fill-rule="evenodd"><path d="M-2-3h24v24H-2z"/><g stroke="#BDBDBD" stroke-linecap="round" stroke-linejoin="round"><path d="M14.28 8.018c0-2.496-1.916-4.519-4.281-4.519-2.363 0-4.28 2.023-4.28 4.52 0 2.494 1.917 4.517 4.28 4.517 2.365 0 4.281-2.023 4.281-4.518z"/><path d="M1.474 9.125S4.275 3.5 9.864 3.5c5.588 0 8.663 5.625 8.663 5.625s-3.054 5.19-8.663 5.19-8.39-5.19-8.39-5.19zm8.038-3.63c-.928 0-1.678.793-1.678 1.77"/></g><path stroke="#BDBDBD" stroke-linecap="round" stroke-linejoin="round" d="M1.5 16.5L18.625 1.375"/></g></svg>